<?xml version="1.0" standalone="no"?>
<!DOCTYPE svg PUBLIC "-//W3C//DTD SVG 20010904//EN"
 "http://www.w3.org/TR/2001/REC-SVG-20010904/DTD/svg10.dtd">
<svg version="1.0" xmlns="http://www.w3.org/2000/svg"
 width="225.000000pt" height="225.000000pt" viewBox="0 0 225.000000 225.000000"
 preserveAspectRatio="xMidYMid meet">
<metadata>
Created by potrace 1.14, written by Peter Selinger 2001-2017
</metadata>
<g transform="translate(0.000000,225.000000) scale(0.100000,-0.100000)"
fill="#000000" stroke="none">
<path d="M1000 2244 c-146 -22 -265 -57 -365 -106 -265 -131 -479 -372 -572
-643 -140 -408 -39 -857 262 -1160 233 -235 522 -347 859 -332 290 13 526 118
736 327 155 155 245 313 300 526 27 103 37 311 21 424 -83 563 -562 976 -1126
968 -49 0 -101 -2 -115 -4z m522 -534 c41 -12 104 -75 114 -115 4 -15 4 -46 2
-70 -15 -132 -179 -192 -278 -101 l-25 23 -245 -142 -245 -143 0 -42 0 -42
245 -143 245 -142 25 23 c51 47 118 56 186 25 56 -25 87 -71 92 -137 10 -124
-108 -214 -223 -169 -74 28 -123 109 -110 181 6 29 2 31 -221 159 -285 164
-260 153 -287 127 -28 -26 -88 -52 -121 -52 -48 0 -107 32 -137 73 -53 73 -34
184 41 234 66 46 156 39 211 -17 l28 -28 246 142 c243 139 246 141 241 170
-18 88 68 190 164 195 8 1 31 -4 52 -9z"/>
<path d="M1440 1653 c-28 -10 -59 -46 -70 -79 -22 -66 34 -134 111 -134 47 0
99 56 99 107 0 47 -22 81 -66 99 -35 15 -49 16 -74 7z"/>
<path d="M634 1221 c-37 -16 -64 -60 -64 -105 1 -61 46 -106 108 -106 51 0
102 54 102 109 0 74 -80 130 -146 102z"/>
<path d="M1413 780 c-103 -62 -28 -226 88 -191 84 25 107 115 45 177 -40 40
-83 45 -133 14z"/>
</g>
</svg>
